<svg width="53" height="50" viewBox="0 0 53 50" xmlns="http://www.w3.org/2000/svg">
    <path d="M48.244 20.19c2.609 0 4.756-2.141 4.756-4.743v-3.469a4.745 4.745 0 0 0-3.262-4.498L27.995.244a4.787 4.787 0 0 0-3.017 0L3.262 7.48A4.745 4.745 0 0 0 0 11.978v3.47c0 2.6 2.147 4.742 4.756 4.742h.68v17.615h-.68C2.147 37.805 0 39.945 0 42.547v2.71C0 47.86 2.147 50 4.756 50h43.488C50.853 50 53 47.86 53 45.257v-2.71c0-2.601-2.147-4.742-4.756-4.742h-.68V20.19h.68zM4.077 15.447v-3.469c0-.298.19-.542.462-.65l21.744-7.236s.135-.027.217-.027a.6.6 0 0 1 .217.027l21.744 7.236a.676.676 0 0 1 .462.65v3.47c0 .379-.299.677-.68.677H4.757a.672.672 0 0 1-.68-.678zm13.59 22.358V20.19h17.666v17.615H17.667zM9.513 20.19h4.077v17.615H9.513V20.19zm39.41 22.357v2.71c0 .38-.299.678-.68.678H4.757a.672.672 0 0 1-.68-.678v-2.71c0-.379.3-.677.68-.677h43.488c.38 0 .68.298.68.677zm-5.436-4.742H39.41V20.19h4.077v17.615z" fill="#2961FF" fill-rule="nonzero"/>
</svg>
