<svg width="34" height="32" viewBox="0 0 34 32" xmlns="http://www.w3.org/2000/svg">
    <path d="M30.949 12.921c1.674 0 3.051-1.37 3.051-3.035v-2.22c0-1.3-.837-2.463-2.092-2.879L17.959.157a3.078 3.078 0 0 0-1.935 0L2.092 4.786A3.038 3.038 0 0 0 0 7.667v2.22c0 1.664 1.377 3.034 3.051 3.034h.436v11.274h-.436C1.377 24.195 0 25.565 0 27.23v1.735C0 30.63 1.377 32 3.051 32H30.95C32.623 32 34 30.63 34 28.965V27.23c0-1.665-1.377-3.035-3.051-3.035h-.436V12.921h.436zM2.615 9.886v-2.22a.45.45 0 0 1 .297-.416L16.86 2.619s.087-.017.139-.017c.052 0 .087 0 .14.017l13.948 4.63a.433.433 0 0 1 .297.417v2.22a.43.43 0 0 1-.436.434H3.05a.43.43 0 0 1-.436-.434zm8.718 14.31V12.92h11.334v11.274H11.333zM6.103 12.92h2.615v11.274H6.103V12.921zm25.282 14.31v1.734a.43.43 0 0 1-.436.433H3.05a.43.43 0 0 1-.436-.433V27.23a.43.43 0 0 1 .436-.433H30.95a.43.43 0 0 1 .436.433zm-3.488-3.036h-2.615V12.921h2.615v11.274z" fill="#FFF" fill-rule="nonzero"/>
</svg>
