<?xml version="1.0" encoding="UTF-8"?>
<svg width="20px" height="20px" viewBox="0 0 20 20" version="1.1" xmlns="http://www.w3.org/2000/svg" xmlns:xlink="http://www.w3.org/1999/xlink">
    <title>Group 3181</title>
    <g id="Desktop" stroke="none" stroke-width="1" fill="none" fill-rule="evenodd">
        <g id="[D]-Pasword-reset-(from-email)" transform="translate(-1238.000000, -479.000000)">
            <g id="Right" transform="translate(780.000000, 0.000000)">
                <g id="Group-5" transform="translate(168.000000, 304.000000)">
                    <g id="Group" transform="translate(0.000000, 68.000000)">
                        <g id="Group-3181" transform="translate(290.000000, 107.000000)">
                            <path d="M20,10 C20,4.47715235 15.5228477,0 10,0 C4.47715235,0 0,4.47715235 0,10 C0,15.5228477 4.47715235,20 10,20 C15.5228477,20 20,15.5228477 20,10 Z" id="bg" fill="#2961FF"></path>
                            <path d="M10.7466063,10.8592938 C10.3912996,11.187457 10.037326,11.5156201 9.68401909,11.8431664 C9.45803598,12.0522779 9.0733982,12.0522779 8.84608185,11.8431664 C8.7767537,11.7783974 8.70742545,11.7142452 8.63943052,11.650093 C8.14880052,11.195476 7.65950377,10.7420929 7.16954039,10.286859 C6.93555787,10.0709622 6.95155668,9.73107889 7.16954039,9.51209785 C7.38552426,9.29373365 7.78816082,9.30915485 8.00747776,9.51209785 C8.07747253,9.57625004 8.14680067,9.64040223 8.21479559,9.70455442 C8.56543607,10.0290165 8.91607648,10.355329 9.26538372,10.6797911 C9.82067555,10.1659566 10.3746343,9.65397293 10.9292595,9.1401385 L11.9918466,8.15688271 C12.2258291,7.94036906 12.5931349,7.95517341 12.8297839,8.15688271 C13.0650997,8.35859201 13.0484342,8.72993452 12.8291173,8.93287752 C12.7004602,9.05192919 12.5698034,9.17283141 12.4411464,9.29188308 L10.7466063,10.8592938 Z" id="icon" fill="#FFFFFF" fill-rule="nonzero"></path>
                        </g>
                    </g>
                </g>
            </g>
        </g>
    </g>
</svg>