<svg width="50" height="50" viewBox="0 0 50 50" xmlns="http://www.w3.org/2000/svg">
    <g fill="none" fill-rule="evenodd">
        <path d="M25 50c13.807 0 25-11.193 25-25S38.807 0 25 0 0 11.193 0 25s11.193 25 25 25z" fill="#313381"/>
        <path d="m27.153 25 5.382-5.382a1.522 1.522 0 1 0-2.153-2.153L25 22.847l-5.381-5.382a1.522 1.522 0 1 0-2.153 2.153l5.382 5.381-5.382 5.383a1.522 1.522 0 1 0 2.153 2.153l5.381-5.382 5.383 5.382a1.522 1.522 0 1 0 2.153-2.153L27.153 25v.002z" fill="#FFF" fill-rule="nonzero"/>
    </g>
</svg>
