<?xml version="1.0" encoding="UTF-8"?>
<svg width="11px" height="11px" viewBox="0 0 11 11" version="1.1" xmlns="http://www.w3.org/2000/svg" xmlns:xlink="http://www.w3.org/1999/xlink">
    <title>close</title>
    <g id="Desktop" stroke="none" stroke-width="1" fill="none" fill-rule="evenodd">
        <g id="[D]-Payment-overview" transform="translate(-878.000000, -202.000000)" fill="#000000" fill-rule="nonzero">
            <g id="Group-7" transform="translate(533.000000, 179.000000)">
                <g id="close" transform="translate(345.000000, 23.000000)">
                    <path d="M6.66931299,5.03634162 L10.204313,1.64767495 C10.4642696,1.40706192 10.5685256,1.05075031 10.4770101,0.715688767 C10.3854947,0.380627228 10.1124497,0.118959141 9.76282032,0.0312568436 C9.41319089,-0.0564454537 9.04138746,0.0434665585 8.79031299,0.292591619 L5.25431299,3.68029995 L1.71931299,0.292591619 C1.46823852,0.0434665585 1.0964351,-0.0564454537 0.746805669,0.0312568436 C0.397176238,0.118959141 0.124131277,0.380627228 0.0326158368,0.715688767 C-0.0588996039,1.05075031 0.0453564089,1.40706192 0.305312993,1.64767495 L3.84031299,5.03538329 L0.305312993,8.42404995 C0.0453564089,8.66466299 -0.0588996039,9.0209746 0.0326158368,9.35603614 C0.124131277,9.69109768 0.397176238,9.95276576 0.746805669,10.0404681 C1.0964351,10.1281704 1.46823852,10.0282583 1.71931299,9.77913329 L5.25431299,6.39142495 L8.79031299,9.77913329 C9.04138746,10.0282583 9.41319089,10.1281704 9.76282032,10.0404681 C10.1124497,9.95276576 10.3854947,9.69109768 10.4770101,9.35603614 C10.5685256,9.0209746 10.4642696,8.66466299 10.204313,8.42404995 L6.66931299,5.03538329 L6.66931299,5.03634162 Z" id="Path"></path>
                </g>
            </g>
        </g>
    </g>
</svg>