<?xml version="1.0" encoding="UTF-8"?>
<svg width="16px" height="16px" viewBox="0 0 16 16" version="1.1" xmlns="http://www.w3.org/2000/svg" xmlns:xlink="http://www.w3.org/1999/xlink">
    <title>link</title>
    <g id="Desktop" stroke="none" stroke-width="1" fill="none" fill-rule="evenodd">
        <g id="[D]-Home-" transform="translate(-1111.000000, -366.000000)" fill="#2961FF" fill-rule="nonzero">
            <g id="Left-Bar" transform="translate(1066.867000, -1.251830)">
                <g id="Group-2" transform="translate(0.133000, -19.748170)">
                    <g id="Form/Text/Default-Copy-3" transform="translate(28.000000, 358.000000)">
                        <g id="Icons/Social/Instagram" transform="translate(16.983500, 29.983000)">
                            <g id="link" transform="translate(0.000000, 0.000000)">
                                <path d="M2.65844469,7.78749142 C2.97391298,7.47281858 3.48451857,7.47281858 3.79998686,7.78749142 C3.95115896,7.93848306 4.03610275,8.14338721 4.03610275,8.35705776 C4.03610275,8.5707283 3.95115896,8.77563245 3.79998686,8.92662409 L2.0876736,10.6365731 C1.78507417,10.9385899 1.61502451,11.3485769 1.61502451,11.7761224 C1.61502451,12.2036678 1.78507417,12.6136548 2.0876736,12.9156717 C2.71861019,13.5450174 3.73982136,13.5450174 4.37075794,12.9156717 L8.36532229,8.92662409 C8.51649439,8.77563245 8.60143819,8.5707283 8.60143819,8.35705776 C8.60143819,8.14338721 8.51649439,7.93848306 8.36532229,7.78749142 C8.21389488,7.63646625 8.12878894,7.43138338 8.12878894,7.21750843 C8.12878894,7.00363348 8.21389488,6.79855061 8.36532229,6.64752544 C8.68079059,6.3328526 9.19139617,6.3328526 9.50686446,6.64752544 C9.96089128,7.10056751 10.2160469,7.71563736 10.2160469,8.35705776 C10.2160469,8.99847815 9.96089128,9.61354801 9.50686446,10.0665901 L5.51146687,14.0556377 C4.24978324,15.3147874 2.20698182,15.3147874 0.945298192,14.0556377 C0.340099331,13.4516039 0,12.63163 0,11.776539 C0,10.9214481 0.340099331,10.1014741 0.945298192,9.49744039 L2.65844469,7.78665811 L2.65844469,7.78749142 Z M12.3407221,7.21250858 C12.0252538,7.52718142 11.5146482,7.52718142 11.1991799,7.21250858 C11.0480078,7.06151694 10.963064,6.85661279 10.963064,6.64294224 C10.963064,6.4292717 11.0480078,6.22436755 11.1991799,6.07337591 L12.9114932,4.36342694 C13.2140926,4.06141006 13.3841422,3.65142307 13.3841422,3.22387761 C13.3841422,2.79633216 13.2140926,2.38634516 12.9114932,2.08432829 C12.2805566,1.45498261 11.2593454,1.45498261 10.6284088,2.08432829 L6.63467771,6.07337591 C6.48350561,6.22436755 6.39856181,6.4292717 6.39856181,6.64294224 C6.39856181,6.85661279 6.48350561,7.06151694 6.63467771,7.21250858 C6.78610512,7.36353375 6.87121106,7.56861662 6.87121106,7.78249157 C6.87121106,7.99636652 6.78610512,8.20144939 6.63467771,8.35247456 C6.31920941,8.6671474 5.80860383,8.6671474 5.49313554,8.35247456 C5.03910872,7.89943249 4.78395314,7.28436264 4.78395314,6.64294224 C4.78395314,6.00152185 5.03910872,5.38645199 5.49313554,4.93340993 L9.48853313,0.944362306 C10.7502168,-0.314787435 12.7930182,-0.314787435 14.0547018,0.944362306 C14.6599007,1.54839606 15,2.36837005 15,3.22346096 C15,4.07855187 14.6599007,4.89852586 14.0547018,5.50255961 L12.3407221,7.21334189 L12.3407221,7.21250858 Z" id="Shape"></path>
                            </g>
                        </g>
                    </g>
                </g>
            </g>
        </g>
    </g>
</svg>