<svg width="30" height="30" viewBox="0 0 30 30" xmlns="http://www.w3.org/2000/svg">
    <g fill-rule="nonzero" fill="none">
        <path d="M.04 13.95C.018 14.296 0 14.645 0 15c0 .376.019.748.046 1.117l15.03 9.646 14.879-9.657c.027-.365.045-.733.045-1.106 0-.36-.017-.715-.042-1.069l-14.98-9.695L.041 13.95zM23.418 15a8.06 8.06 0 0 1-.169 1.645c.002 0 .002.002.004.003-.018.089-.044.175-.066.264l-.038.155a7.907 7.907 0 0 1-.264.836l-.006-.006A8.075 8.075 0 0 1 7.61 12.666a.444.444 0 0 1-.026.002c.14-.457.32-.9.539-1.325h.018A8.074 8.074 0 0 1 23.417 15z" fill="#EAD11F"/>
        <path d="M7.61 12.666a8.075 8.075 0 0 0 15.268 5.231c-2.875-2.747-8.125-5.905-15.268-5.231zm1.007 5.35-.17-.094-.09.042-.082.04.032-.158.007-.032-.133-.14.19-.025.089-.17.082.177.19.038-.145.126.03.197zm.115-4.074-.254.126.064-.291-.21-.21.292-.031.127-.26.126.266.28.05-.21.197.038.292-.253-.14zm6.344 3.745.14-.019.062-.126.064.126.139.032-.101.095.019.146-.127-.07-.126.063.032-.145-.102-.102zm.539 3.72-.101-.056-.114.057.025-.127-.083-.089.12-.012.058-.108.05.114.12.019-.088.082.013.12zm4.1-.126-.152-.088-.152.082.038-.177-.12-.127.17-.025.076-.159.07.165.171.032-.126.127.026.17zm1.56-2.49-.14-.07-.139.063.032-.146-.108-.101.153-.02.076-.126.063.127.158.031-.12.096.025.145zm.729-1.015.063-.127.063.133.133.026-.101.101.02.14-.127-.064-.127.063.032-.145-.101-.108.145-.02zm-1.084-.013.114-.221.101.228.24.044-.183.165.038.247-.215-.126-.222.114.05-.247-.17-.178.247-.026zm-.095 1.35.088-.17.083.177.19.038-.146.126.026.197-.165-.095-.171.088.037-.19-.133-.146.19-.025zm-.66.248.07-.127.064.127.146.032-.108.1.019.153-.127-.076-.133.064.026-.146-.102-.108.146-.02zm-.646-.007.076-.146.063.153.159.025-.12.114.025.165-.14-.089-.145.076.032-.165-.108-.114.158-.019zm-.044.868.082-.158.076.165.19.032-.145.12.025.178-.158-.089-.172.076.038-.177-.126-.127.19-.02zm-1.167-.849.064-.126.063.126.14.026-.102.101.013.146-.12-.076-.127.063.025-.14-.095-.107.14-.013zm-.323 1.293.279.05-.216.197.038.292-.247-.146-.253.127.05-.285-.196-.21.285-.031.133-.26.127.266zm-.583-6.027.095-.178.083.19.19.032-.139.14.025.202-.172-.1-.183.088.038-.203-.14-.146.203-.025zm-.235 4.734.064-.126.063.126.133.026-.101.101.02.146-.127-.076-.127.063.032-.14-.101-.107.145-.013zm-.956-2.446.088-.172.076.178.19.032-.139.133.026.197-.165-.102-.178.089.038-.19-.127-.146.19-.02zm-.457 2.085-.215-.127-.222.114.05-.247-.177-.183.253-.026.114-.228.102.234.247.045-.19.171.038.247zm-.462-2.972.133-.26.126.266.28.05-.216.204.044.285-.254-.14-.253.127.05-.291-.196-.21.286-.031zm-.697.887.088-.178.076.184.19.032-.139.133.025.19-.17-.095-.172.088.038-.19-.126-.146.19-.018zm-2.289-1.68.14-.254.12.267.279.05-.21.197.039.291-.254-.146-.254.127.058-.285-.203-.209.285-.038zm0 4.037.14-.253.12.266.279.05-.21.191.039.298-.254-.146-.254.127.058-.285-.203-.216.285-.032zm-1.28-1.635.089-.17.082.177.19.032-.145.133.025.19-.165-.088-.171.082.038-.19-.133-.14.19-.026zm-.241.71.082.178.19.038-.145.126.025.197-.165-.096-.17.09.037-.191-.133-.146.19-.025.089-.17zm-.488-1.863.05-.108.051.114.12.02-.088.082.02.126-.108-.063-.108.05.025-.12-.082-.089.12-.012zm-.615.38.28.05-.21.197.038.292-.253-.146-.254.126.057-.285-.203-.209.285-.038.133-.253.127.266zm-1.541-5.534c6.036-.394 10.815 1.538 15.107 5.303a8.075 8.075 0 0 0-7.893-9.726 8.073 8.073 0 0 0-7.214 4.423zm9.648 1.028.12-.228.108.24.253.045-.19.171.038.26-.228-.127-.228.114.05-.253-.177-.19.254-.032z" fill="#325DB2"/>
        <path d="m29.958 13.931-14.98-9.695L.041 13.95C.58 6.156 7.069 0 15 0c7.925 0 14.41 6.146 14.958 13.931zM.046 16.117C.618 23.879 7.092 30 15 30c7.912 0 14.388-6.127 14.955-13.893l-14.878 9.657L.046 16.117zm19.283-1.054.57.349.076-.127-.424-.253.126-.21.38.235.083-.126-.38-.235.1-.17.406.253.076-.127-.557-.349-.463.761h.007zm1.052.324a.216.216 0 0 0-.012.139.19.19 0 0 0 .088.101c.05.032.089.045.127.038.038 0 .063-.02.082-.05a.084.084 0 0 0 .013-.051.099.099 0 0 0-.032-.063 1.95 1.95 0 0 0-.101-.114c-.07-.07-.114-.127-.127-.178a.234.234 0 0 1 .127-.285.241.241 0 0 1 .139-.02c.059.01.115.032.165.064.095.063.152.127.171.197a.26.26 0 0 1-.025.215l-.159-.088c.02-.045.026-.076.013-.108a.18.18 0 0 0-.083-.089.202.202 0 0 0-.12-.038.062.062 0 0 0-.05.032c-.013.02-.013.038-.007.063a.447.447 0 0 0 .108.14.692.692 0 0 1 .126.152.247.247 0 0 1 0 .266.265.265 0 0 1-.114.101.254.254 0 0 1-.152.02.51.51 0 0 1-.184-.07.381.381 0 0 1-.177-.203.343.343 0 0 1 .025-.254l.16.083zm-8.31-2.859-.671-.063.082-.887.653.063-.012.152-.475-.044-.02.19.444.045-.02.152-.443-.045-.02.241.495.045-.012.151zm9.033 3.34a.217.217 0 0 0-.02.14.19.19 0 0 0 .089.107c.045.032.089.05.127.045a.1.1 0 0 0 .082-.045.082.082 0 0 0 .013-.057.142.142 0 0 0-.032-.063.769.769 0 0 0-.095-.114.49.49 0 0 1-.114-.19.234.234 0 0 1 .126-.28.243.243 0 0 1 .146-.012c.06.014.116.04.165.076.089.063.146.126.165.203a.26.26 0 0 1-.038.209l-.152-.095c.019-.038.025-.076.012-.108-.006-.032-.031-.063-.075-.089a.202.202 0 0 0-.114-.044.063.063 0 0 0-.058.032c-.012.019-.012.038-.006.063a.386.386 0 0 0 .102.14c.063.062.1.12.126.158a.246.246 0 0 1-.02.266.259.259 0 0 1-.12.095.254.254 0 0 1-.152.02.491.491 0 0 1-.178-.083c-.095-.064-.152-.133-.17-.21a.343.343 0 0 1 .037-.253l.007.007.147.082zm-8.646-3.27-.165-.026.127-.887.266.045.07.62.247-.57.266.038-.126.875-.171-.025.108-.691-.28.665-.17-.025-.07-.716-.102.697zm5.217 1.534a.38.38 0 0 1-.064-.222.545.545 0 0 1 .229-.425.393.393 0 0 1 .228-.07c.063 0 .127.02.203.064a.365.365 0 0 1 .196.178c.033.069.04.148.02.221l-.172-.05a.19.19 0 0 0-.012-.127c-.02-.038-.05-.063-.101-.088a.24.24 0 0 0-.197-.02c-.063.02-.12.076-.165.165-.044.089-.063.171-.044.241a.236.236 0 0 0 .126.153c.032.019.07.031.108.031a.387.387 0 0 0 .114 0l.05-.1-.183-.096.07-.127.342.172-.159.316a.58.58 0 0 1-.399-.05.505.505 0 0 1-.19-.166zm-8.798-2.675a.66.66 0 0 0-.19.032.422.422 0 0 0-.203.196.584.584 0 0 0-.044.229c-.01.122.029.242.108.336.08.082.19.128.304.126a.41.41 0 0 0 .317-.107.459.459 0 0 0 .126-.337.469.469 0 0 0-.1-.348.45.45 0 0 0-.318-.127zm.165.697a.222.222 0 0 1-.177.07.227.227 0 0 1-.178-.082.36.36 0 0 1-.063-.229c.006-.101.025-.177.076-.228a.229.229 0 0 1 .177-.076c.067 0 .13.03.171.083.05.05.064.126.064.228-.007.108-.025.184-.07.234zm.628-.152h.038c.03 0 .06.004.088.013.022.007.042.02.058.037l.088.127.127.203h.215l-.107-.178a.711.711 0 0 0-.096-.145l-.095-.076a.285.285 0 0 0 .171-.076.24.24 0 0 0 .064-.165.262.262 0 0 0-.038-.146.187.187 0 0 0-.102-.083.514.514 0 0 0-.203-.031h-.38l-.012.887h.183v-.367zm.006-.146v-.222l.146.006h.126c.026.007.05.02.064.038.019.013.025.038.025.076 0 .02-.007.051-.02.064-.012.012-.031.032-.05.032-.02.012-.076.012-.165.012h-.127v-.006zm1.274.564a.313.313 0 0 0 .127-.063.385.385 0 0 0 .107-.152.585.585 0 0 0 .032-.19.526.526 0 0 0-.095-.362.296.296 0 0 0-.126-.088.558.558 0 0 0-.165-.02l-.33-.018-.045.887.337.02c.063 0 .12 0 .158-.014zm-.279-.735h.083c.049.002.098.008.145.02a.174.174 0 0 1 .076.044.2.2 0 0 1 .05.088c.008.038.008.089.008.159s-.013.126-.026.165a.209.209 0 0 1-.05.082.105.105 0 0 1-.076.032h-.241l.031-.59zm4.43 1.14.108.033c.083.019.146.032.19.032a.248.248 0 0 0 .19-.089.265.265 0 0 0 .064-.126c.013-.07.013-.127-.013-.178a.216.216 0 0 0-.1-.12l-.204-.064-.279-.063-.209.862.178.044.075-.33zm.09-.386h.006l.082.02.12.031c.028.012.05.032.064.057.013.026.013.051.013.083a.12.12 0 0 1-.101.095c-.026.007-.076-.006-.14-.02l-.095-.024.05-.242zm.772.628.032.013c.045.012.07.025.083.044.016.014.03.031.038.05.017.05.032.101.044.153l.063.228.197.07-.038-.196-.05-.171a.337.337 0 0 0-.064-.102c.076.013.14.006.19-.019a.28.28 0 0 0 .114-.139c.013-.05.007-.095 0-.146a.186.186 0 0 0-.063-.114.763.763 0 0 0-.19-.088l-.35-.127-.297.837.165.063.126-.356zm.12-.342.127.044.127.045a.106.106 0 0 1 .05.057.08.08 0 0 1 0 .076.095.095 0 0 1-.037.057c-.02.02-.038.02-.058.02a.547.547 0 0 1-.158-.045l-.12-.045h-.006l.076-.21zm.907 1.166c.12.038.235.032.33-.025a.469.469 0 0 0 .215-.285c.038-.14.038-.26-.012-.362a.411.411 0 0 0-.266-.209c-.07-.026-.134-.026-.197-.026a.384.384 0 0 0-.24.14.573.573 0 0 0-.109.203.463.463 0 0 0 .013.355c.055.104.152.18.266.209zm-.101-.513c.031-.102.076-.165.139-.203a.23.23 0 0 1 .19-.02c.063.02.114.067.14.127.031.063.031.14 0 .234-.033.102-.07.171-.134.203a.227.227 0 0 1-.19.026.242.242 0 0 1-.146-.127c-.03-.063-.025-.146 0-.24zm1.711 1.267.171-.33.032.02.076.044c.016.018.027.04.032.064.01.052.016.105.019.158l.025.234.19.096-.012-.203a.85.85 0 0 0-.025-.178c-.013-.032-.026-.07-.051-.108.07.025.133.025.196.013a.24.24 0 0 0 .127-.127c.025-.044.025-.088.025-.139 0-.05-.019-.089-.05-.12a.642.642 0 0 0-.171-.12l-.337-.172-.405.786.158.082zm.336-.659.127.063c.039.02.077.041.114.064.025.019.038.044.044.063.007.025 0 .05-.013.076-.012.025-.025.044-.044.05-.02.013-.045.013-.063.013a.621.621 0 0 1-.146-.063l-.12-.063.101-.203zm2.7 2.542a.42.42 0 0 0 .19.279.41.41 0 0 0 .33.07.461.461 0 0 0 .285-.21.499.499 0 0 0 .089-.348.42.42 0 0 0-.19-.28.486.486 0 0 0-.178-.075.348.348 0 0 0-.14 0 .407.407 0 0 0-.139.057.566.566 0 0 0-.158.165.466.466 0 0 0-.089.342zm.241-.241c.063-.089.127-.14.19-.153a.206.206 0 0 1 .19.032.243.243 0 0 1 .102.165c.013.064-.013.14-.07.229a.337.337 0 0 1-.184.152c-.063.02-.126.006-.19-.038a.229.229 0 0 1-.101-.159c-.013-.07.006-.145.07-.228h-.007zm-8.03-3.537.145-.621.457.108-.02.101-.336-.076-.031.14.31.07-.025.107-.31-.076-.039.171.349.083-.025.1-.476-.107z" fill="#249338"/>
    </g>
</svg>
