<svg width="18" height="19" viewBox="0 0 18 19" xmlns="http://www.w3.org/2000/svg">
    <g fill-rule="nonzero" fill="none">
        <path d="M17.825 7.316H17.1v-.037H9v3.6h5.086A5.398 5.398 0 0 1 3.6 9.079a5.4 5.4 0 0 1 5.4-5.4c1.377 0 2.629.519 3.582 1.367L15.128 2.5A8.958 8.958 0 0 0 9 .08a9 9 0 1 0 8.825 7.237z" fill="#FFC107"/>
        <path d="m1 4.904 2.938 2.175c.795-1.987 2.72-3.39 4.973-3.39 1.368 0 2.612.521 3.56 1.372L15 2.508A8.856 8.856 0 0 0 8.911.078C5.476.079 2.498 2.037 1 4.905z" fill="#FF3D00"/>
        <path d="M8.986 18.079A9.037 9.037 0 0 0 15 15.799L12.224 13.5a5.418 5.418 0 0 1-3.238 1.067c-2.333 0-4.314-1.456-5.06-3.488L1 13.284c1.485 2.844 4.5 4.795 7.986 4.795z" fill="#4CAF50"/>
        <path d="M17.825 7.114H17.1v-.035H9v3.399h5.086a5.146 5.146 0 0 1-1.839 2.367l.002-.001 2.785 2.226C14.837 15.239 18 13.027 18 8.778c0-.57-.062-1.126-.175-1.664z" fill="#1976D2"/>
    </g>
</svg>
