<svg width="41" height="40" viewBox="0 0 41 40" xmlns="http://www.w3.org/2000/svg" xmlns:xlink="http://www.w3.org/1999/xlink">
    <defs>
        <path d="M16 32c8.837 0 16-7.163 16-16S24.837 0 16 0 0 7.163 0 16s7.163 16 16 16z" id="3394alqoxa"/>
        <mask id="jli3wjt9gb" maskContentUnits="userSpaceOnUse" maskUnits="objectBoundingBox" x="-4" y="-4" width="40" height="40">
            <path fill="#fff" d="M-4-4h40v40H-4z"/>
            <use xlink:href="#3394alqoxa"/>
        </mask>
    </defs>
    <g transform="translate(4.5 4)" fill="none" fill-rule="evenodd">
        <use stroke="#FEFEFE" mask="url(#jli3wjt9gb)" stroke-width="8" fill="#1D51FE" stroke-dasharray="0,0" xlink:href="#3394alqoxa"/>
        <path d="M7 7h18v18H7z"/>
        <g stroke="#FEFEFE" stroke-width="1.5" stroke-linecap="round" stroke-linejoin="round" stroke-dasharray="0,0">
            <path d="M10.788 16.217c-.233.248-.458.735-.503 1.073l-.277 2.43c-.098.877.532 1.477 1.402 1.327l2.415-.412c.338-.06.81-.308 1.043-.563l6.157-6.517c1.065-1.125 1.545-2.408-.112-3.975-1.65-1.553-2.903-1.005-3.968.12l-6.157 6.517z"/>
            <path d="M15.918 10.788a4.595 4.595 0 0 0 4.087 3.862"/>
        </g>
    </g>
</svg>
