<svg width="54" height="54" viewBox="0 0 54 54" xmlns="http://www.w3.org/2000/svg">
    <g fill="none" fill-rule="evenodd">
        <rect stroke="#313381" x=".5" y=".5" width="53" height="53" rx="14"/>
        <path d="M26.75 17C23.58 17 21 19.58 21 22.75v8c0 3.17 2.58 5.75 5.75 5.75 1.26 0 2.45-.4 3.45-1.15a.75.75 0 0 0-.9-1.2c-.74.56-1.62.85-2.55.85a4.26 4.26 0 0 1-4.25-4.25v-8a4.26 4.26 0 0 1 4.25-4.25A4.26 4.26 0 0 1 31 22.75v5.5c0 .96-.79 1.75-1.75 1.75s-1.75-.79-1.75-1.75v-4.5c0-.41-.34-.75-.75-.75s-.75.34-.75.75v4.5c0 1.79 1.46 3.25 3.25 3.25s3.25-1.46 3.25-3.25v-5.5c0-3.17-2.58-5.75-5.75-5.75z" fill="#313381" fill-rule="nonzero"/>
    </g>
</svg>
