<svg width="30" height="30" viewBox="0 0 30 30" xmlns="http://www.w3.org/2000/svg">
    <g fill-rule="nonzero">
        <path d="M23.625 0h-18A5.627 5.627 0 0 0 0 5.625v12a5.617 5.617 0 0 0 4.5 5.505v4.995c0 .42.225.795.6.99.165.09.345.135.525.135.225 0 .435-.06.63-.195l7.86-5.25c.555-.375 1.2-.57 1.875-.57h7.635a5.627 5.627 0 0 0 5.625-5.625V5.625A5.627 5.627 0 0 0 23.625 0zM27 17.625A3.38 3.38 0 0 1 23.625 21H15.99c-1.11 0-2.19.33-3.12.945l-6.12 4.08v-3.9C6.75 21.51 6.24 21 5.625 21a3.38 3.38 0 0 1-3.375-3.375v-12A3.38 3.38 0 0 1 5.625 2.25h18A3.38 3.38 0 0 1 27 5.625v12z"/>
        <path d="M13.875 8.25h2.25c.21 0 .375.165.375.375 0 .615.51 1.125 1.125 1.125s1.125-.51 1.125-1.125A2.638 2.638 0 0 0 16.125 6h-.375v-.375c0-.615-.51-1.125-1.125-1.125S13.5 5.01 13.5 5.625v.42c-1.68.195-3 1.605-3 3.33a3.38 3.38 0 0 0 3.375 3.375h1.5c.615 0 1.125.51 1.125 1.125S15.99 15 15.375 15h-2.25a.371.371 0 0 1-.375-.375c0-.615-.51-1.125-1.125-1.125s-1.125.51-1.125 1.125a2.638 2.638 0 0 0 2.625 2.625h.375v.375c0 .615.51 1.125 1.125 1.125s1.125-.51 1.125-1.125v-.42c1.68-.195 3-1.605 3-3.33a3.38 3.38 0 0 0-3.375-3.375h-1.5c-.615 0-1.125-.51-1.125-1.125s.51-1.125 1.125-1.125z"/>
    </g>
</svg>
