<svg width="50" height="50" viewBox="0 0 50 50" xmlns="http://www.w3.org/2000/svg">
    <g fill="none" fill-rule="evenodd">
        <path d="M25 50c13.807 0 25-11.193 25-25S38.807 0 25 0 0 11.193 0 25s11.193 25 25 25z" fill="#313381"/>
        <g fill="#FFF" fill-rule="nonzero">
            <path d="M31.75 15h-6C24.23 15 23 16.23 23 17.75v3c0 1.52 1.23 2.75 2.75 2.75h6c1.52 0 2.75-1.23 2.75-2.75v-3c0-1.52-1.23-2.75-2.75-2.75zm0 7h-6c-.69 0-1.25-.56-1.25-1.25v-3c0-.69.56-1.25 1.25-1.25h6c.69 0 1.25.56 1.25 1.25V18h-5.25c-.41 0-.75.34-.75.75s.34.75.75.75H33v1.25c0 .69-.56 1.25-1.25 1.25zM23.75 26h-6C16.23 26 15 27.23 15 28.75v3c0 1.52 1.23 2.75 2.75 2.75h6c1.52 0 2.75-1.23 2.75-2.75v-3c0-1.52-1.23-2.75-2.75-2.75zm-6 1.5h6c.69 0 1.25.56 1.25 1.25V29h-8.5v-.25c0-.69.56-1.25 1.25-1.25zm6 5.5h-6c-.69 0-1.25-.56-1.25-1.25V30.5H25v1.25c0 .69-.56 1.25-1.25 1.25zM33.75 25c-.41 0-.75.34-.75.75v3c0 .14-.11.25-.25.25h-2.19l.72-.72c.29-.29.29-.77 0-1.06a.754.754 0 0 0-1.06 0l-2 2c-.07.07-.12.15-.16.24-.08.18-.08.39 0 .57.04.09.09.17.16.24l2 2c.15.15.34.22.53.22s.38-.07.53-.22c.29-.29.29-.77 0-1.06l-.72-.72h2.19c.96 0 1.75-.79 1.75-1.75v-3c0-.41-.34-.75-.75-.75V25zM15.75 24.5c.41 0 .75-.34.75-.75v-3c0-.14.11-.25.25-.25h2.19l-.72.72c-.29.29-.29.77 0 1.06.15.15.34.22.53.22s.38-.07.53-.22l2-2c.07-.07.12-.15.16-.24.08-.18.08-.39 0-.57a.776.776 0 0 0-.16-.24l-2-2a.754.754 0 0 0-1.06 0c-.29.29-.29.77 0 1.06l.72.72h-2.19c-.96 0-1.75.79-1.75 1.75v3c0 .41.34.75.75.75v-.01z"/>
        </g>
    </g>
</svg>
