<svg width="18" height="16" viewBox="0 0 18 16" xmlns="http://www.w3.org/2000/svg">
    <g fill="none" fill-rule="evenodd">
        <path d="M0 0h17.41v16H0z"/>
        <g stroke="#8F9BB3" stroke-dasharray="0,0" stroke-linecap="round" stroke-linejoin="round" stroke-width="1.2">
            <path d="M4.657 11.82c-1.617-.973-2.662-2.44-2.662-3.727 0-2.186 3.003-4.866 6.71-4.866 1.516 0 2.924.446 4.055 1.14M14.4 5.74c.646.754 1.022 1.587 1.022 2.354 0 2.186-3.01 4.866-6.717 4.866-.66 0-1.305-.086-1.908-.24"/>
            <path d="M7.084 9.578a1.999 1.999 0 0 1-.67-1.486C6.41 6.929 7.433 5.983 8.7 5.982c.61-.002 1.194.22 1.625.616M10.96 8.466c-.169.861-.902 1.537-1.84 1.695M14.43 2.833 2.987 13.35"/>
        </g>
    </g>
</svg>
