<svg width="23" height="30" viewBox="0 0 23 30" xmlns="http://www.w3.org/2000/svg">
    <path d="M22.468 21.975c-.42-4.2-3.12-7.62-6.795-9.135 1.755-1.305 2.91-3.36 2.91-5.715A7.131 7.131 0 0 0 11.458 0a7.131 7.131 0 0 0-7.125 7.125c0 2.34 1.155 4.41 2.91 5.715a11.041 11.041 0 0 0-6.795 9.135L.013 26.37c-.075.735.165 1.47.66 2.025.495.555 1.2.87 1.95.87h17.685a2.627 2.627 0 0 0 2.61-2.895l-.435-4.395h-.015zM6.583 7.125a4.884 4.884 0 0 1 4.875-4.875 4.884 4.884 0 0 1 4.875 4.875A4.884 4.884 0 0 1 11.458 12a4.884 4.884 0 0 1-4.875-4.875zM20.578 26.88s-.135.12-.285.12H2.608a.39.39 0 0 1-.285-.12.36.36 0 0 1-.09-.285l.435-4.395a8.785 8.785 0 0 1 8.775-7.935 8.797 8.797 0 0 1 8.775 7.935l.435 4.395c0 .15-.06.24-.09.285h.015z" fill-rule="nonzero"/>
</svg>
