<svg width="72" height="72" viewBox="0 0 72 72" xmlns="http://www.w3.org/2000/svg" xmlns:xlink="http://www.w3.org/1999/xlink">
    <defs>
        <path id="36bgpux0ra" d="M0 0h72v72H0z"/>
    </defs>
    <g fill="none" fill-rule="evenodd">
        <mask id="olzz5619xb" fill="#fff">
            <use xlink:href="#36bgpux0ra"/>
        </mask>
        <g mask="url(#olzz5619xb)" fill="#2961FF">
            <path d="M39.079 5.76a3.703 3.703 0 1 1-6.158-4.114A3.703 3.703 0 0 1 39.08 5.76z" fill-rule="nonzero"/>
            <path d="M39.079 70.354a3.703 3.703 0 1 1-6.158-4.114 3.703 3.703 0 0 1 6.158 4.114z" fill-rule="nonzero" opacity=".65"/>
            <path d="M66.24 39.079a3.703 3.703 0 1 1 4.114-6.158 3.703 3.703 0 0 1-4.114 6.158z" fill-rule="nonzero" opacity=".45"/>
            <path d="M1.646 39.079a3.703 3.703 0 1 1 4.114-6.158 3.703 3.703 0 0 1-4.114 6.158z" fill-rule="nonzero" opacity=".8"/>
            <path d="M59.56 16.792a3.703 3.703 0 1 1-1.451-7.262 3.703 3.703 0 0 1 1.45 7.262z" fill-rule="nonzero" opacity=".35"/>
            <path d="M13.88 62.47a3.703 3.703 0 1 1-1.45-7.262 3.703 3.703 0 0 1 1.45 7.262z" fill-rule="nonzero" opacity=".7"/>
            <path d="M55.208 59.56a3.703 3.703 0 1 1 1.016 1.895 3.703 3.703 0 0 1-1.016-1.896z" fill-rule="nonzero" opacity=".55"/>
            <path d="M13.16 16.86a3.7 3.7 0 1 1 0-7.401 3.7 3.7 0 0 1 0 7.402z" opacity=".9"/>
            <path d="M50.342 9.198A3.703 3.703 0 1 1 51.7 7.531a3.703 3.703 0 0 1-1.358 1.667z" fill-rule="nonzero" opacity=".2"/>
            <path d="M25.796 68.948a3.703 3.703 0 1 1-4.136-6.143 3.703 3.703 0 0 1 4.136 6.143z" fill-rule="nonzero" opacity=".7"/>
            <path d="M62.802 50.342a3.703 3.703 0 1 1 1.667 1.358 3.703 3.703 0 0 1-1.667-1.358z" fill-rule="nonzero" opacity=".5"/>
            <path d="M3.052 25.796a3.703 3.703 0 1 1 6.143-4.136 3.703 3.703 0 0 1-6.143 4.136z" fill-rule="nonzero" opacity=".85"/>
            <path d="M65.092 27.189a3.703 3.703 0 1 1 1.422-7.268 3.703 3.703 0 0 1-1.422 7.268z" fill-rule="nonzero" opacity=".4"/>
            <path d="M5.472 52.075a3.703 3.703 0 1 1 2.14-.219 3.703 3.703 0 0 1-2.14.219z" fill-rule="nonzero" opacity=".75"/>
            <path d="M44.811 65.092a3.703 3.703 0 1 1 .218 2.14 3.703 3.703 0 0 1-.218-2.14z" fill-rule="nonzero" opacity=".6"/>
            <path d="M19.924 5.472a3.703 3.703 0 1 1 .217 2.14 3.703 3.703 0 0 1-.217-2.14z" fill-rule="nonzero" opacity=".95"/>
        </g>
    </g>
</svg>
