<svg width="50" height="32" viewBox="0 0 50 32" xmlns="http://www.w3.org/2000/svg">
    <g fill="none" fill-rule="evenodd">
        <rect fill="#2566AF" width="50" height="32" rx="3.961"/>
        <g fill-rule="nonzero">
            <path d="M22.819 20.371h-2.413l1.508-9.206h2.413L22.82 20.37zm-4.443-9.206-2.3 6.332-.272-1.364-.812-4.14s-.098-.828-1.145-.828h-3.802L10 11.32s1.163.24 2.524 1.053l2.096 7.998h2.514l3.839-9.206h-2.597zm18.978 9.206h2.216l-1.932-9.207h-1.94c-.895 0-1.113.686-1.113.686l-3.599 8.521h2.515l.503-1.367h3.068l.282 1.367zM34.7 17.114l1.268-3.445.713 3.445H34.7zm-3.524-3.736.344-1.977S30.457 11 29.35 11c-1.197 0-4.04.52-4.04 3.048 0 2.378 3.337 2.408 3.337 3.657 0 1.25-2.994 1.026-3.982.238l-.358 2.067s1.077.52 2.723.52c1.647 0 4.13-.847 4.13-3.152 0-2.394-3.367-2.617-3.367-3.657 0-1.041 2.35-.908 3.383-.343z" fill="#FFF"/>
            <path d="m15.804 16.133-.812-4.14s-.098-.829-1.145-.829h-3.802L10 11.32s1.828.376 3.581 1.786c1.676 1.348 2.223 3.027 2.223 3.027z" fill="#E6A540"/>
        </g>
    </g>
</svg>
