<svg width="25" height="30" viewBox="0 0 25 30" xmlns="http://www.w3.org/2000/svg">
    <g fill-rule="nonzero">
        <path d="M16.125 18C15.51 18 15 18.51 15 19.125v6C15 26.16 14.16 27 13.125 27h-9a1.876 1.876 0 0 1-1.875-1.875v-21c0-1.035.84-1.875 1.875-1.875H4.5v.375A2.638 2.638 0 0 0 7.125 5.25h3a2.638 2.638 0 0 0 2.625-2.625V2.25h.375C14.16 2.25 15 3.09 15 4.125v1.5c0 .615.51 1.125 1.125 1.125s1.125-.51 1.125-1.125v-1.5A4.123 4.123 0 0 0 13.125 0h-9A4.123 4.123 0 0 0 0 4.125v21a4.123 4.123 0 0 0 4.125 4.125h9a4.123 4.123 0 0 0 4.125-4.125v-6c0-.615-.51-1.125-1.125-1.125zM10.5 2.625c0 .21-.165.375-.375.375h-3a.371.371 0 0 1-.375-.375V2.25h3.75v.375z"/>
        <path d="M7.125 22.5C6.51 22.5 6 23.01 6 23.625s.51 1.125 1.125 1.125h3c.615 0 1.125-.51 1.125-1.125s-.51-1.125-1.125-1.125h-3zM23.985 4.725a2.625 2.625 0 0 0-3.705 0l-6.93 6.93a4.277 4.277 0 0 0-1.005 1.605l-.84 2.505a1.124 1.124 0 0 0 1.425 1.425l2.505-.84c.6-.21 1.17-.555 1.605-1.005l6.93-6.93a2.625 2.625 0 0 0 0-3.705l.015.015zm-1.59 2.115-6.93 6.93c-.195.21-.45.36-.735.45l-.375.12.12-.375c.09-.27.255-.525.45-.735l6.93-6.93s.165-.105.27-.105c.105 0 .195.03.27.105.15.15.15.39 0 .525v.015z"/>
    </g>
</svg>
