<svg width="53" height="51" viewBox="0 0 53 51" xmlns="http://www.w3.org/2000/svg">
    <g fill-rule="nonzero">
        <path d="M42.808 0H10.192C4.566 0 0 4.55 0 10.157v21.667c0 5.607 4.566 10.157 10.192 10.157h4.077c1.903 0 3.751.92 4.893 2.437l3.533 4.686C23.592 50.323 24.978 51 26.5 51a4.73 4.73 0 0 0 3.805-1.896l3.533-4.686a6.187 6.187 0 0 1 4.893-2.437h4.077C48.434 41.98 53 37.43 53 31.824V10.157C53 4.55 48.434 0 42.808 0zm6.115 31.824c0 3.359-2.745 6.094-6.115 6.094H38.73c-3.18 0-6.252 1.517-8.154 4.063l-3.533 4.685c-.354.46-.734.46-1.088 0l-3.533-4.685c-1.902-2.546-4.974-4.063-8.154-4.063h-4.077c-3.37 0-6.115-2.735-6.115-6.094V10.157c0-3.359 2.745-6.094 6.115-6.094h32.616c3.37 0 6.115 2.735 6.115 6.094v21.667z"/>
        <path d="M26.5 23c4.145 0 7.5-3.355 7.5-7.5S30.645 8 26.5 8a7.496 7.496 0 0 0-7.5 7.5c0 4.145 3.355 7.5 7.5 7.5zm0-10.91a3.41 3.41 0 0 1 0 6.82 3.41 3.41 0 0 1 0-6.82zM37.536 27.908C36.252 25.491 33.684 24 30.816 24h-9.642c-2.869 0-5.436 1.491-6.72 3.908l-1.23 2.288c-.518.952-.109 2.109.93 2.597 1.01.489 2.24.077 2.758-.874l1.23-2.288c.573-1.106 1.748-1.774 3.059-1.774h9.642c1.312 0 2.459.668 3.06 1.774l1.229 2.288c.355.669 1.093 1.054 1.83 1.054.3 0 .628-.077.902-.205 1.01-.489 1.42-1.646.928-2.597l-1.229-2.289-.027.026z"/>
    </g>
</svg>
